<svg xmlns="http://www.w3.org/2000/svg" xmlns:xlink="http://www.w3.org/1999/xlink"><symbol id="icon-add" viewBox="0 0 24 24"><g fill="none">
<path opacity="0.3" d="M8 15C5.3 15 2.2 16.29 2 17.01V18H14V17C13.8 16.29 10.7 15 8 15Z" fill="white"/>
<path opacity="0.3" d="M8 10C9.10457 10 10 9.10457 10 8C10 6.89543 9.10457 6 8 6C6.89543 6 6 6.89543 6 8C6 9.10457 6.89543 10 8 10Z" fill="white"/>
<path d="M22 9V7H20V9H18V11H20V13H22V11H24V9H22Z" fill="white"/>
<path d="M8 12C10.21 12 12 10.21 12 8C12 5.79 10.21 4 8 4C5.79 4 4 5.79 4 8C4 10.21 5.79 12 8 12ZM8 6C9.1 6 10 6.9 10 8C10 9.1 9.1 10 8 10C6.9 10 6 9.1 6 8C6 6.9 6.9 6 8 6Z" fill="white"/>
<path d="M8 13C5.33 13 0 14.34 0 17V20H16V17C16 14.34 10.67 13 8 13ZM14 18H2V17.01C2.2 16.29 5.3 15 8 15C10.7 15 13.8 16.29 14 17V18Z" fill="white"/>
<path d="M12.51 4.05005C13.43 5.11005 14 6.49005 14 8.00005C14 9.51005 13.43 10.89 12.51 11.95C14.47 11.7 16 10.04 16 8.00005C16 5.96005 14.47 4.30005 12.51 4.05005Z" fill="white"/>
<path d="M16.53 13.83C17.42 14.66 18 15.7 18 17V20H20V17C20 15.55 18.41 14.49 16.53 13.83Z" fill="white"/>
</g></symbol><symbol id="icon-arrow-down" viewBox="0 0 16 19"><g fill="none">
<path fill-rule="evenodd" clip-rule="evenodd" d="M15.6818 11.6424L8.76818 18.6763C8.34393 19.1079 7.65607 19.1079 7.23182 18.6763L0.318191 11.6424C-0.106063 11.2108 -0.106063 10.511 0.318191 10.0793C0.742445 9.64772 1.4303 9.64772 1.85455 10.0793L6.91363 15.2264L6.91363 1.08637C6.91363 0.486386 7.40001 3.75917e-07 8 3.49691e-07C8.59999 3.23465e-07 9.08637 0.486387 9.08637 1.08637L9.08637 15.2264L14.1454 10.0793C14.5697 9.64771 15.2576 9.64771 15.6818 10.0793C16.1061 10.511 16.1061 11.2108 15.6818 11.6424Z" fill="#DFEEF8"/>
</g></symbol><symbol id="icon-cabinet" viewBox="0 0 24 24"><g fill="none">
<path opacity="0.3" d="M7 19H13V5H7V19ZM10 11H12V13H10V11Z" fill="white"/>
<path d="M19 19V4H15V3H5V19H3V21H15V6H17V21H21V19H19ZM13 19H7V5H13V19ZM10 11H12V13H10V11Z" fill="white"/>
</g></symbol><symbol id="icon-email" viewBox="0 0 24 24"><g fill="none">
<path d="M12 2C6.48 2 2 6.48 2 12C2 17.52 6.48 22 12 22H17V20H12C7.66 20 4 16.34 4 12C4 7.66 7.66 4 12 4C16.34 4 20 7.66 20 12V13.43C20 14.22 19.29 15 18.5 15C17.71 15 17 14.22 17 13.43V12C17 9.24 14.76 7 12 7C9.24 7 7 9.24 7 12C7 14.76 9.24 17 12 17C13.38 17 14.64 16.44 15.54 15.53C16.19 16.42 17.31 17 18.5 17C20.47 17 22 15.4 22 13.43V12C22 6.48 17.52 2 12 2ZM12 15C10.34 15 9 13.66 9 12C9 10.34 10.34 9 12 9C13.66 9 15 10.34 15 12C15 13.66 13.66 15 12 15Z" fill="white"/>
</g></symbol><symbol id="icon-faq-arrow" viewBox="0 0 24 24"><g fill="none">
<path d="M17 14.5005L12 9.50049L7 14.5005L17 14.5005Z" fill="#F7620F"/>
</g></symbol><symbol id="icon-header-add" viewBox="0 0 24 25"><g fill="none">
<path opacity="0.3" d="M8 15.5C5.3 15.5 2.2 16.79 2 17.51V18.5H14V17.5C13.8 16.79 10.7 15.5 8 15.5Z" fill="#FFAB00"/>
<path opacity="0.3" d="M8 10.5C9.10457 10.5 10 9.60457 10 8.5C10 7.39543 9.10457 6.5 8 6.5C6.89543 6.5 6 7.39543 6 8.5C6 9.60457 6.89543 10.5 8 10.5Z" fill="#FFAB00"/>
<path d="M22 9.5V7.5H20V9.5H18V11.5H20V13.5H22V11.5H24V9.5H22Z" fill="#FFAB00"/>
<path d="M8 12.5C10.21 12.5 12 10.71 12 8.5C12 6.29 10.21 4.5 8 4.5C5.79 4.5 4 6.29 4 8.5C4 10.71 5.79 12.5 8 12.5ZM8 6.5C9.1 6.5 10 7.4 10 8.5C10 9.6 9.1 10.5 8 10.5C6.9 10.5 6 9.6 6 8.5C6 7.4 6.9 6.5 8 6.5Z" fill="#FFAB00"/>
<path d="M8 13.5C5.33 13.5 0 14.84 0 17.5V20.5H16V17.5C16 14.84 10.67 13.5 8 13.5ZM14 18.5H2V17.51C2.2 16.79 5.3 15.5 8 15.5C10.7 15.5 13.8 16.79 14 17.5V18.5Z" fill="#FFAB00"/>
<path d="M12.51 4.5498C13.43 5.6098 14 6.9898 14 8.4998C14 10.0098 13.43 11.3898 12.51 12.4498C14.47 12.1998 16 10.5398 16 8.4998C16 6.4598 14.47 4.7998 12.51 4.5498Z" fill="#FFAB00"/>
<path d="M16.53 14.3301C17.42 15.1601 18 16.2001 18 17.5001V20.5001H20V17.5001C20 16.0501 18.41 14.9901 16.53 14.3301Z" fill="#FFAB00"/>
</g></symbol><symbol id="icon-phone" viewBox="0 0 24 24"><g fill="none">
<path d="M6.54 5C6.6 5.89 6.75 6.76 6.99 7.59L5.79 8.79C5.38 7.59 5.12 6.32 5.03 5H6.54ZM16.4 17.02C17.25 17.26 18.12 17.41 19 17.47V18.96C17.68 18.87 16.41 18.61 15.2 18.21L16.4 17.02ZM7.5 3H4C3.45 3 3 3.45 3 4C3 13.39 10.61 21 20 21C20.55 21 21 20.55 21 20V16.51C21 15.96 20.55 15.51 20 15.51C18.76 15.51 17.55 15.31 16.43 14.94C16.33 14.9 16.22 14.89 16.12 14.89C15.86 14.89 15.61 14.99 15.41 15.18L13.21 17.38C10.38 15.93 8.06 13.62 6.62 10.79L8.82 8.59C9.1 8.31 9.18 7.92 9.07 7.57C8.7 6.45 8.5 5.25 8.5 4C8.5 3.45 8.05 3 7.5 3Z" fill="white"/>
</g></symbol><symbol id="icon-social-fb" viewBox="0 0 24 24"><g fill="none">
<path d="M10 22.65V13H6.80005V9.23004H10V6.42004C10 3.21004 12 1.42004 14.81 1.42004C16.21 1.42004 17.41 1.52004 17.72 1.52004V4.92004H15.72C14.12 4.92004 13.82 5.62004 13.82 6.72004V9.12004H17.53L17 12.93H13.82V22.55H10V22.65Z" fill="white"/>
</g></symbol><symbol id="icon-social-ig" viewBox="0 0 24 24"><g fill="none">
<path fill-rule="evenodd" clip-rule="evenodd" d="M13.4 3H10.6C8.88684 3 7.72225 3.00156 6.82208 3.0751C5.94524 3.14674 5.49684 3.27659 5.18404 3.43597C4.43139 3.81947 3.81947 4.43139 3.43597 5.18404C3.27659 5.49684 3.14674 5.94524 3.0751 6.82208C3.00156 7.72225 3 8.88684 3 10.6V13.4C3 15.1132 3.00156 16.2777 3.0751 17.1779C3.14674 18.0548 3.27659 18.5032 3.43597 18.816C3.81947 19.5686 4.43139 20.1805 5.18404 20.564C5.49684 20.7234 5.94524 20.8533 6.82208 20.9249C7.72225 20.9984 8.88684 21 10.6 21H13.4C15.1132 21 16.2777 20.9984 17.1779 20.9249C18.0548 20.8533 18.5032 20.7234 18.816 20.564C19.5686 20.1805 20.1805 19.5686 20.564 18.816C20.7234 18.5032 20.8533 18.0548 20.9249 17.1779C20.9984 16.2777 21 15.1132 21 13.4V10.6C21 8.88684 20.9984 7.72225 20.9249 6.82208C20.8533 5.94524 20.7234 5.49684 20.564 5.18404C20.1805 4.43139 19.5686 3.81947 18.816 3.43597C18.5032 3.27659 18.0548 3.14674 17.1779 3.0751C16.2777 3.00156 15.1132 3 13.4 3ZM1.65396 4.27606C1 5.55953 1 7.23969 1 10.6V13.4C1 16.7603 1 18.4405 1.65396 19.7239C2.2292 20.8529 3.14708 21.7708 4.27606 22.346C5.55953 23 7.23969 23 10.6 23H13.4C16.7603 23 18.4405 23 19.7239 22.346C20.8529 21.7708 21.7708 20.8529 22.346 19.7239C23 18.4405 23 16.7603 23 13.4V10.6C23 7.23969 23 5.55953 22.346 4.27606C21.7708 3.14708 20.8529 2.2292 19.7239 1.65396C18.4405 1 16.7603 1 13.4 1H10.6C7.23969 1 5.55953 1 4.27606 1.65396C3.14708 2.2292 2.2292 3.14708 1.65396 4.27606Z" fill="white"/>
<path fill-rule="evenodd" clip-rule="evenodd" d="M12 16C14.2091 16 16 14.2091 16 12C16 9.79086 14.2091 8 12 8C9.79086 8 8 9.79086 8 12C8 14.2091 9.79086 16 12 16ZM12 18C15.3137 18 18 15.3137 18 12C18 8.68629 15.3137 6 12 6C8.68629 6 6 8.68629 6 12C6 15.3137 8.68629 18 12 18Z" fill="white"/>
<path d="M19 6C19 6.55228 18.5523 7 18 7C17.4477 7 17 6.55228 17 6C17 5.44772 17.4477 5 18 5C18.5523 5 19 5.44772 19 6Z" fill="white"/>
</g></symbol><symbol id="icon-social-vk" viewBox="0 0 24 24"><g fill="none">
<path fill-rule="evenodd" clip-rule="evenodd" d="M22.1759 7.02291C22.3243 6.52846 22.1759 6.16504 21.4701 6.16504H19.1362C18.5427 6.16504 18.2693 6.47895 18.121 6.82519C18.121 6.82519 16.934 9.71804 15.2526 11.5971C14.7087 12.1411 14.4614 12.314 14.1647 12.314C14.0163 12.314 13.8016 12.1411 13.8016 11.6467V7.02291C13.8016 6.42943 13.6294 6.16504 13.1348 6.16504H9.46726C9.09651 6.16504 8.87346 6.44044 8.87346 6.7015C8.87346 7.26413 9.71399 7.39383 9.80067 8.9762V12.4132C9.80067 13.1667 9.66464 13.3034 9.36791 13.3034C8.57672 13.3034 6.65227 10.3974 5.51067 7.07242C5.28695 6.4261 5.06257 6.16504 4.4661 6.16504H2.13222C1.4654 6.16504 1.33203 6.47895 1.33203 6.82519C1.33203 7.44334 2.12338 10.5094 5.01622 14.5643C6.94501 17.3333 9.66198 18.8347 12.1346 18.8347C13.6182 18.8347 13.8016 18.5013 13.8016 17.927V15.834C13.8016 15.1671 13.9421 15.0341 14.4118 15.0341C14.7582 15.0341 15.3515 15.2072 16.7363 16.5423C18.3187 18.1245 18.5794 18.8347 19.4696 18.8347H21.8035C22.4703 18.8347 22.8037 18.5013 22.6113 17.8433C22.4009 17.1874 21.6454 16.2362 20.6429 15.1083C20.0989 14.4653 19.2829 13.773 19.0358 13.4269C18.6896 12.9818 18.7884 12.7841 19.0358 12.3887C19.0358 12.3887 21.8792 8.38306 22.1759 7.02307V7.02291Z" fill="white"/>
</g></symbol></svg>